<?xml version="1.0" encoding="UTF-8" standalone="no"?>
<svg
   xmlns:dc="http://purl.org/dc/elements/1.1/"
   xmlns:cc="http://creativecommons.org/ns#"
   xmlns:rdf="http://www.w3.org/1999/02/22-rdf-syntax-ns#"
   xmlns:svg="http://www.w3.org/2000/svg"
   xmlns="http://www.w3.org/2000/svg"
   viewBox="0 0 2666.6667 2666.6667"
   height="2666.6667"
   width="2666.6667"
   xml:space="preserve"
   id="svg2"
   version="1.1"><metadata
     id="metadata8"><rdf:RDF><cc:Work
         rdf:about=""><dc:format>image/svg+xml</dc:format><dc:type
           rdf:resource="http://purl.org/dc/dcmitype/StillImage" /></cc:Work></rdf:RDF></metadata><defs
     id="defs6" /><g
     transform="matrix(1.3333333,0,0,-1.3333333,0,2666.6667)"
     id="g10"><g
       transform="scale(0.1)"
       id="g12"><g
         transform="scale(1.22699)"
         id="g14"><path
           id="path16"
           style="fill:#c5ebe5;fill-opacity:1;fill-rule:nonzero;stroke:none"
           d="M 16300,0 H 0 V 16300 H 16300 V 0" /></g><path
         id="path18"
         style="fill:#152b27;fill-opacity:1;fill-rule:nonzero;stroke:none"
         d="m 6250.71,8737.3 h 95.93 V 8401 h 207.85 v -78.2 h -303.78 v 414.5" /><path
         id="path20"
         style="fill:#152b27;fill-opacity:1;fill-rule:nonzero;stroke:none"
         d="m 6939.4,8414.3 c 19.73,11.2 35.23,26.9 46.48,47.1 11.25,20.1 16.88,43 16.88,68.7 0,25.6 -5.63,48.5 -16.88,68.7 -11.25,20.1 -26.75,35.8 -46.48,47 -19.75,11.3 -41.86,16.9 -66.33,16.9 -24.48,0 -46.58,-5.6 -66.32,-16.9 -19.75,-11.2 -35.23,-26.9 -46.49,-47 -11.25,-20.2 -16.88,-43.1 -16.88,-68.7 0,-25.7 5.63,-48.6 16.88,-68.7 11.26,-20.2 26.74,-35.9 46.49,-47.1 19.74,-11.3 41.84,-16.9 66.32,-16.9 24.47,0 46.58,5.6 66.33,16.9 z m -182.69,-70.8 c -34.55,18.6 -61.59,44.2 -81.13,76.7 -19.54,32.6 -29.31,69.2 -29.31,109.9 0,40.6 9.77,77.2 29.31,109.8 19.54,32.6 46.58,58.1 81.13,76.7 34.54,18.5 73.33,27.8 116.36,27.8 43.03,0 81.72,-9.3 116.07,-27.8 34.35,-18.6 61.38,-44.1 81.13,-76.7 19.73,-32.6 29.6,-69.2 29.6,-109.8 0,-40.7 -9.87,-77.3 -29.6,-109.9 -19.75,-32.5 -46.78,-58.1 -81.13,-76.7 -34.35,-18.5 -73.04,-27.8 -116.07,-27.8 -43.03,0 -81.82,9.3 -116.36,27.8" /><path
         id="path22"
         style="fill:#152b27;fill-opacity:1;fill-rule:nonzero;stroke:none"
         d="m 7623.34,8737.3 v -414.5 h -78.76 l -206.66,251.7 v -251.7 h -94.75 v 414.5 h 79.35 l 206.08,-251.6 v 251.6 h 94.74" /><path
         id="path24"
         style="fill:#152b27;fill-opacity:1;fill-rule:nonzero;stroke:none"
         d="m 8113.66,8399.8 v -77 h -320.95 v 414.5 h 313.26 v -77 h -217.92 v -90 h 192.45 v -74.6 h -192.45 v -95.9 h 225.61" /><path
         id="path26"
         style="fill:#152b27;fill-opacity:1;fill-rule:nonzero;stroke:none"
         d="m 8261.11,8737.3 h 95.93 V 8401 h 207.85 v -78.2 h -303.78 v 414.5" /><path
         id="path28"
         style="fill:#152b27;fill-opacity:1;fill-rule:nonzero;stroke:none"
         d="m 8846.17,8469.7 v -146.9 h -95.93 v 148 l -160.48,266.5 h 101.85 l 110.73,-184.1 110.75,184.1 h 94.15 l -161.07,-267.6" /><path
         id="path30"
         style="fill:#152b27;fill-opacity:1;fill-rule:nonzero;stroke:none"
         d="m 9599.99,8484.5 -65.73,158.7 -65.73,-158.7 z m 30.21,-72.9 h -192.46 l -36.71,-88.8 h -98.31 l 184.76,414.5 h 94.75 l 185.35,-414.5 H 9666.9 l -36.7,88.8" /><path
         id="path32"
         style="fill:#152b27;fill-opacity:1;fill-rule:nonzero;stroke:none"
         d="m 9923.02,8329 c -30.6,8.9 -55.17,20.5 -73.73,34.7 l 32.57,72.2 c 17.76,-13 38.88,-23.5 63.36,-31.4 24.48,-7.9 48.95,-11.8 73.48,-11.8 27.2,0 47.3,4 60.4,12.1 13,8.1 19.5,18.9 19.5,32.3 0,9.9 -3.9,18.1 -11.6,24.6 -7.6,6.5 -17.5,11.7 -29.6,15.7 -12,3.9 -28.3,8.3 -48.8,13 -31.61,7.5 -57.45,15 -77.59,22.5 -20.14,7.5 -37.41,19.5 -51.82,36.1 -14.41,16.6 -21.61,38.7 -21.61,66.3 0,24.1 6.52,45.9 19.54,65.5 13.03,19.5 32.67,35 58.92,46.4 26.25,11.5 58.34,17.2 96.26,17.2 26.4,0 52.3,-3.1 77.6,-9.4 25.2,-6.4 47.3,-15.4 66.3,-27.3 l -29.6,-72.8 c -38.3,21.7 -76.6,32.5 -114.9,32.5 -26.9,0 -46.71,-4.3 -59.53,-13 -12.83,-8.7 -19.25,-20.1 -19.25,-34.3 0,-14.2 7.41,-24.8 22.21,-31.7 14.81,-6.9 37.37,-13.7 67.77,-20.4 31.6,-7.5 57.5,-15 77.6,-22.5 20.1,-7.5 37.4,-19.4 51.8,-35.6 14.4,-16.2 21.6,-38.1 21.6,-65.7 0,-23.7 -6.6,-45.3 -19.8,-64.8 -13.2,-19.6 -33.1,-35.1 -59.5,-46.5 -26.5,-11.5 -58.7,-17.2 -96.5,-17.2 -32.82,0 -64.49,4.4 -95.08,13.3" /><path
         id="path34"
         style="fill:#152b27;fill-opacity:1;fill-rule:nonzero;stroke:none"
         d="M 10410.7,8659.2 H 10278 v 78.1 h 361.2 v -78.1 h -132.6 v -336.4 h -95.9 v 336.4" /><path
         id="path36"
         style="fill:#152b27;fill-opacity:1;fill-rule:nonzero;stroke:none"
         d="m 11001.6,8640.5 c -15,12.4 -36.9,18.7 -65.7,18.7 h -78.2 v -144.5 h 78.2 c 28.8,0 50.7,6.3 65.7,18.9 15,12.6 22.5,30.4 22.5,53.3 0,23.3 -7.5,41.2 -22.5,53.6 z m 24.3,-317.7 -79.9,115.5 h -88.3 v -115.5 h -95.9 v 414.5 h 179.4 c 36.8,0 68.6,-6.1 95.7,-18.3 27,-12.3 47.8,-29.6 62.4,-52.1 14.6,-22.5 22,-49.2 22,-80 0,-30.8 -7.4,-57.3 -22.2,-79.6 -14.9,-22.3 -35.9,-39.4 -63.1,-51.3 l 92.9,-133.2 h -103" /><path
         id="path38"
         style="fill:#152b27;fill-opacity:1;fill-rule:nonzero;stroke:none"
         d="m 11535.2,8414.3 c 19.7,11.2 35.2,26.9 46.5,47.1 11.2,20.1 16.8,43 16.8,68.7 0,25.6 -5.6,48.5 -16.8,68.7 -11.3,20.1 -26.8,35.8 -46.5,47 -19.8,11.3 -41.9,16.9 -66.3,16.9 -24.5,0 -46.6,-5.6 -66.4,-16.9 -19.7,-11.2 -35.2,-26.9 -46.5,-47 -11.2,-20.2 -16.8,-43.1 -16.8,-68.7 0,-25.7 5.6,-48.6 16.8,-68.7 11.3,-20.2 26.8,-35.9 46.5,-47.1 19.8,-11.3 41.9,-16.9 66.4,-16.9 24.4,0 46.5,5.6 66.3,16.9 z m -182.7,-70.8 c -34.6,18.6 -61.6,44.2 -81.1,76.7 -19.6,32.6 -29.3,69.2 -29.3,109.9 0,40.6 9.7,77.2 29.3,109.8 19.5,32.6 46.5,58.1 81.1,76.7 34.5,18.5 73.3,27.8 116.4,27.8 43,0 81.7,-9.3 116,-27.8 34.4,-18.6 61.4,-44.1 81.1,-76.7 19.8,-32.6 29.6,-69.2 29.6,-109.8 0,-40.7 -9.8,-77.3 -29.6,-109.9 -19.7,-32.5 -46.7,-58.1 -81.1,-76.7 -34.3,-18.5 -73,-27.8 -116,-27.8 -43.1,0 -81.9,9.3 -116.4,27.8" /><path
         id="path40"
         style="fill:#152b27;fill-opacity:1;fill-rule:nonzero;stroke:none"
         d="m 12219.1,8737.3 v -414.5 h -78.7 l -206.7,251.7 v -251.7 h -94.8 v 414.5 h 79.4 l 206.1,-251.6 v 251.6 h 94.7" /><path
         id="path42"
         style="fill:#152b27;fill-opacity:1;fill-rule:nonzero;stroke:none"
         d="m 12631.3,8484.5 -65.8,158.7 -65.7,-158.7 z m 30.2,-72.9 H 12469 l -36.7,-88.8 h -98.3 l 184.8,414.5 h 94.7 l 185.3,-414.5 h -100.6 l -36.7,88.8" /><path
         id="path44"
         style="fill:#152b27;fill-opacity:1;fill-rule:nonzero;stroke:none"
         d="m 12950.1,8364.9 c -32.9,32.7 -49.4,79.5 -49.4,140.3 v 232.1 h 95.9 v -228.6 c 0,-74.2 30.8,-111.3 92.4,-111.3 30,0 52.9,9 68.7,27 15.8,17.9 23.7,46 23.7,84.3 v 228.6 h 94.8 v -232.1 c 0,-60.8 -16.5,-107.6 -49.5,-140.3 -33,-32.8 -79.1,-49.2 -138.3,-49.2 -59.2,0 -105.3,16.4 -138.3,49.2" /><path
         id="path46"
         style="fill:#152b27;fill-opacity:1;fill-rule:nonzero;stroke:none"
         d="m 13520.7,8659.2 h -132.6 v 78.1 h 361.2 v -78.1 h -132.7 v -336.4 h -95.9 v 336.4" /><path
         id="path48"
         style="fill:#39ab9b;fill-opacity:1;fill-rule:nonzero;stroke:none"
         d="m 8367.57,7766.6 c 24.19,0 45.49,4.7 63.87,13.9 18.38,9.3 32.52,22.5 42.42,39.6 9.9,17.2 14.86,37 14.86,59.7 0,22.6 -4.96,42.5 -14.86,59.6 -9.9,17.1 -24.04,30.3 -42.42,39.6 -18.38,9.3 -39.68,13.9 -63.87,13.9 h -80.14 v -226.3 z m -141.42,278.1 h 144.25 c 35.19,0 66.46,-6.8 93.8,-20.5 27.35,-13.6 48.55,-33 63.64,-57.9 15.08,-25 22.63,-53.8 22.63,-86.5 0,-32.7 -7.55,-61.5 -22.63,-86.5 -15.09,-25 -36.29,-44.3 -63.64,-58 -27.34,-13.7 -58.61,-20.5 -93.8,-20.5 h -144.25 v 329.9" /><path
         id="path50"
         style="fill:#39ab9b;fill-opacity:1;fill-rule:nonzero;stroke:none"
         d="m 9098.7,7766.2 v -51.4 h -247.48 v 329.9 h 240.88 v -51.3 h -179.6 v -85.8 h 159.33 v -50.5 H 8912.5 v -90.9 h 186.2" /><path
         id="path52"
         style="fill:#39ab9b;fill-opacity:1;fill-rule:nonzero;stroke:none"
         d="m 9431.26,7720.9 c -23.73,7.2 -42.51,16.8 -56.33,28.8 l 21.22,47.6 c 13.5,-10.7 30.09,-19.4 49.73,-26.2 19.63,-6.7 39.36,-10.1 59.16,-10.1 24.51,0 42.81,3.9 54.92,11.8 12.09,7.8 18.14,18.2 18.14,31.1 0,9.4 -3.38,17.2 -10.13,23.3 -6.76,6.1 -15.32,10.9 -25.69,14.4 -10.38,3.4 -24.51,7.4 -42.43,11.8 -25.14,5.9 -45.49,11.9 -61.04,17.9 -15.56,5.9 -28.92,15.3 -40.07,28 -11.16,12.8 -16.74,30 -16.74,51.6 0,18.3 4.95,34.9 14.86,49.8 9.89,14.9 24.81,26.8 44.77,35.6 19.96,8.8 44.39,13.2 73.31,13.2 20.1,0 39.9,-2.5 59.39,-7.6 19.48,-5 36.3,-12.2 50.44,-21.7 l -19.32,-47.6 c -14.46,8.5 -29.55,15 -45.26,19.4 -15.72,4.4 -30.96,6.6 -45.72,6.6 -24.21,0 -42.19,-4.1 -53.98,-12.3 -11.78,-8.2 -17.68,-19 -17.68,-32.5 0,-9.5 3.38,-17.2 10.14,-23.1 6.75,-6 15.32,-10.7 25.69,-14.2 10.37,-3.4 24.51,-7.4 42.42,-11.8 24.52,-5.6 44.62,-11.5 60.34,-17.6 15.71,-6.2 29.15,-15.5 40.31,-28.1 11.15,-12.5 16.73,-29.5 16.73,-50.9 0,-18.2 -4.95,-34.7 -14.85,-49.5 -9.9,-14.8 -24.91,-26.5 -45.02,-35.3 -20.11,-8.8 -44.62,-13.2 -73.53,-13.2 -25.46,0 -50.05,3.6 -73.78,10.8" /><path
         id="path54"
         style="fill:#39ab9b;fill-opacity:1;fill-rule:nonzero;stroke:none"
         d="m 9934.96,8044.7 h 61.27 v -329.9 h -61.27 v 329.9" /><path
         id="path56"
         style="fill:#39ab9b;fill-opacity:1;fill-rule:nonzero;stroke:none"
         d="m 10546.3,7883.5 h 58 V 7752 c -16.9,-13.5 -36.8,-23.9 -59.4,-31.1 -22.6,-7.2 -45.9,-10.8 -69.8,-10.8 -33.6,0 -63.9,7.3 -90.9,21.9 -27.1,14.6 -48.3,34.8 -63.7,60.6 -15.4,25.7 -23.1,54.8 -23.1,87.2 0,32.3 7.7,61.4 23.1,87.2 15.4,25.7 36.7,45.9 63.9,60.5 27.2,14.7 57.7,22 91.7,22 27.7,0 52.8,-4.6 75.4,-13.7 22.6,-9.1 41.7,-22.5 57.1,-40.1 l -38.7,-37.7 c -25.1,25.2 -55.5,37.7 -91,37.7 -23.2,0 -43.9,-4.9 -62,-14.6 -18,-9.7 -32.2,-23.4 -42.4,-41 -10.2,-17.6 -15.3,-37.7 -15.3,-60.3 0,-22 5.1,-41.8 15.3,-59.4 10.2,-17.6 24.4,-31.5 42.4,-41.5 18.1,-10.1 38.6,-15.1 61.6,-15.1 25.7,0 48.3,5.7 67.8,17 v 102.7" /><path
         id="path58"
         style="fill:#39ab9b;fill-opacity:1;fill-rule:nonzero;stroke:none"
         d="m 11213.8,8044.7 v -329.9 h -50.4 l -182,223.4 v -223.4 h -60.8 v 329.9 h 50.5 l 181.9,-223.4 v 223.4 h 60.8" /><path
         id="path60"
         style="fill:#39ab9b;fill-opacity:1;fill-rule:nonzero;stroke:none"
         d="m 11566.7,7720.9 c -23.8,7.2 -42.5,16.8 -56.4,28.8 l 21.3,47.6 c 13.5,-10.7 30,-19.4 49.7,-26.2 19.6,-6.7 39.3,-10.1 59.1,-10.1 24.6,0 42.9,3.9 55,11.8 12.1,7.8 18.1,18.2 18.1,31.1 0,9.4 -3.4,17.2 -10.1,23.3 -6.8,6.1 -15.3,10.9 -25.7,14.4 -10.4,3.4 -24.5,7.4 -42.4,11.8 -25.2,5.9 -45.5,11.9 -61.1,17.9 -15.5,5.9 -28.9,15.3 -40.1,28 -11.1,12.8 -16.7,30 -16.7,51.6 0,18.3 5,34.9 14.9,49.8 9.8,14.9 24.8,26.8 44.7,35.6 20,8.8 44.4,13.2 73.3,13.2 20.1,0 39.9,-2.5 59.4,-7.6 19.5,-5 36.3,-12.2 50.5,-21.7 l -19.4,-47.6 c -14.4,8.5 -29.5,15 -45.2,19.4 -15.7,4.4 -31,6.6 -45.7,6.6 -24.2,0 -42.2,-4.1 -54,-12.3 -11.8,-8.2 -17.7,-19 -17.7,-32.5 0,-9.5 3.4,-17.2 10.1,-23.1 6.8,-6 15.4,-10.7 25.7,-14.2 10.4,-3.4 24.6,-7.4 42.5,-11.8 24.5,-5.6 44.6,-11.5 60.3,-17.6 15.7,-6.2 29.1,-15.5 40.3,-28.1 11.2,-12.5 16.7,-29.5 16.7,-50.9 0,-18.2 -4.9,-34.7 -14.8,-49.5 -9.9,-14.8 -24.9,-26.5 -45,-35.3 -20.1,-8.8 -44.7,-13.2 -73.6,-13.2 -25.4,0 -50,3.6 -73.7,10.8" /><path
         id="path62"
         style="fill:#39ab9b;fill-opacity:1;fill-rule:nonzero;stroke:none"
         d="m 8975.98,9049.3 h 2161.62 c 0,0 -987.4,735.5 -2161.62,0" /><path
         id="path64"
         style="fill:#39ab9b;fill-opacity:1;fill-rule:nonzero;stroke:none"
         d="m 10056.8,12289.9 c -840.19,0 -1521.3,-681.1 -1521.3,-1521.3 0,-570.1 313.63,-1066.8 777.71,-1327.4 20.17,24.4 45.04,44.9 74.19,60.5 -67.21,167.7 -26.73,318.7 120.42,448.9 0.05,0 0.1,0.1 0.14,0.1 -0.4,0.6 -0.84,1.2 -1.33,1.9 -109.55,150 -139.53,328.2 -89.12,529.9 5.16,20.6 3.64,28.2 -8.55,42.7 -77,91.7 -118.75,206.3 -117.6,322.7 1.16,116.1 44.92,229.4 123.23,319.1 131.46,150.6 367.98,190.4 550.17,92.6 12.72,-6.8 19.47,-7.9 30.13,-4.8 41.91,12 87.91,14.1 140.51,6.6 40.4,144 81.7,290.2 121.7,431.7 l 21.5,76.1 c 7.1,25.2 14.3,50.3 21.4,75.5 11.7,41.1 23.4,82.3 35,123.6 1,3.8 2.3,8.2 2.2,9.6 0,0 -0.1,0.5 -0.6,1.2 -30.2,51 -23.2,103.5 18.8,140.5 38.6,34 96.2,36.2 136.9,5.3 34.5,-26.2 48.1,-67.1 38.4,-110.8 66.3,-13.1 125.7,-35.4 180.5,-67.9 40.7,-24.1 78.2,-53.1 111.3,-86.3 25,-25.1 31.1,-52.7 18,-81.9 -2.6,-5.8 -4.5,-13 -6.6,-20.7 -0.8,-3 -1.6,-6 -2.4,-8.9 -3.8,-13.4 -7.7,-27.1 -8.7,-34 6.3,-4 20.6,-10.5 32.5,-16 70.4,-32 129.7,-48.7 186.8,-52.4 v 0 c 9.6,-0.6 32.1,-2.1 45.2,-20.9 13.4,-19.2 6.5,-42 3.9,-50.6 -52.6,-175.2 -103.1,-349.3 -151.9,-517.7 -9.1,-31.6 -29.3,-47.9 -61.7,-50.1 -135.5,-8.9 -267.1,16.1 -390.9,74.5 49.8,-59.8 82.2,-128.8 107.9,-193.3 21.8,-54.7 43.5,-110.5 64.6,-164.4 35.1,-90.1 71.4,-183.3 108.9,-274 43.5,-105 42.3,-220.9 -3.2,-326.3 -45.8,-106.1 -130.2,-187 -237.5,-227.8 -3.2,-1.2 -5.6,-2.3 -7.2,-3.1 0.6,-2 1.5,-4.7 3,-8.5 36.7,-93.8 111.8,-155.5 180.3,-203.4 7.3,-5.1 14.7,-10 22.1,-14.8 7.9,-5.3 15.8,-10.5 23.6,-16 70.9,-49.6 97.3,-121.2 75,-194.7 450.9,263.9 753.9,753.4 753.9,1313.7 0,840.2 -681.1,1521.3 -1521.3,1521.3" /><path
         id="path66"
         style="fill:#152b27;fill-opacity:1;fill-rule:nonzero;stroke:none"
         d="m 9851.53,11974.2 c -9.39,5.6 -18.78,8.4 -28.17,10.5 -5.17,1 -10.35,1.8 -15.52,2.2 -0.46,5.2 -1.19,10.4 -2.28,15.5 -0.98,4.7 -2.28,9.4 -3.9,14.1 -1.7,4.7 -3.6,9.4 -6.47,14.1 -2.87,-4.7 -4.77,-9.4 -6.46,-14.1 -1.63,-4.7 -2.93,-9.4 -3.91,-14.1 -1.09,-5.2 -1.83,-10.3 -2.28,-15.5 -5.17,-0.5 -10.35,-1.2 -15.52,-2.3 -4.7,-1 -9.39,-2.3 -14.09,-3.9 -4.69,-1.7 -9.39,-3.6 -14.08,-6.5 4.69,-2.8 9.39,-4.7 14.08,-6.4 4.7,-1.6 9.39,-2.9 14.09,-3.9 5.16,-1.1 10.33,-1.8 15.49,-2.3 0.45,-5.2 1.19,-10.3 2.27,-15.5 2.09,-9.4 4.85,-18.8 10.41,-28.2 5.56,9.4 8.32,18.8 10.41,28.2 1.08,5.1 1.82,10.3 2.27,15.5 5.16,0.4 10.33,1.2 15.49,2.2 9.39,2.1 18.78,4.9 28.17,10.4" /><path
         id="path68"
         style="fill:#152b27;fill-opacity:1;fill-rule:nonzero;stroke:none"
         d="m 11428.5,11928.2 c -15.1,9 -30.3,13.4 -45.5,16.8 -8.3,1.7 -16.7,2.9 -25,3.7 -0.8,8.3 -2,16.6 -3.7,25 -1.6,7.6 -3.7,15.1 -6.3,22.7 -2.8,7.6 -5.8,15.2 -10.5,22.8 -4.6,-7.6 -7.7,-15.2 -10.4,-22.8 -2.6,-7.6 -4.7,-15.1 -6.3,-22.7 -1.8,-8.4 -3,-16.7 -3.7,-25.1 -8.3,-0.7 -16.7,-1.9 -25.1,-3.7 -7.5,-1.6 -15.1,-3.7 -22.7,-6.3 -7.6,-2.7 -15.2,-5.8 -22.8,-10.4 7.6,-4.7 15.2,-7.7 22.8,-10.5 7.6,-2.6 15.2,-4.7 22.7,-6.3 8.4,-1.7 16.7,-2.9 25.1,-3.6 0.7,-8.4 1.9,-16.8 3.6,-25.1 3.4,-15.2 7.9,-30.4 16.8,-45.5 9,15.1 13.5,30.3 16.9,45.5 1.7,8.3 2.9,16.7 3.6,25 8.4,0.7 16.7,1.9 25,3.7 15.2,3.3 30.4,7.8 45.5,16.8" /><path
         id="path70"
         style="fill:#152b27;fill-opacity:1;fill-rule:nonzero;stroke:none"
         d="m 11337.5,10893.6 c -15.9,9.4 -31.8,14.1 -47.7,17.6 -8.8,1.8 -17.6,3.1 -26.3,3.8 -0.8,8.8 -2,17.6 -3.9,26.3 -1.7,8 -3.9,15.9 -6.6,23.9 -2.9,7.9 -6.1,15.9 -11,23.9 -4.8,-8 -8.1,-16 -10.9,-23.9 -2.8,-8 -5,-15.9 -6.7,-23.9 -1.8,-8.8 -3.1,-17.5 -3.8,-26.3 -8.8,-0.8 -17.6,-2 -26.3,-3.9 -8,-1.6 -16,-3.8 -23.9,-6.6 -8,-2.9 -15.9,-6.1 -23.9,-10.9 8,-4.9 15.9,-8.1 23.9,-11 7.9,-2.8 15.9,-5 23.9,-6.6 8.7,-1.9 17.5,-3.1 26.2,-3.9 0.8,-8.8 2,-17.5 3.9,-26.3 3.5,-15.9 8.2,-31.8 17.6,-47.8 9.5,16 14.1,31.9 17.7,47.8 1.8,8.8 3.1,17.5 3.8,26.3 8.8,0.7 17.5,2 26.3,3.8 15.9,3.5 31.8,8.2 47.7,17.7" /><path
         id="path72"
         style="fill:#152b27;fill-opacity:1;fill-rule:nonzero;stroke:none"
         d="m 8975.43,10958.9 c -20.95,12.4 -41.9,18.5 -62.86,23.2 -11.54,2.4 -23.09,4 -34.64,5 -1.02,11.6 -2.65,23.1 -5.08,34.6 -2.19,10.5 -5.1,21 -8.72,31.4 -3.78,10.5 -8.02,21 -14.42,31.5 -6.41,-10.5 -10.65,-21 -14.43,-31.5 -3.62,-10.4 -6.53,-20.9 -8.72,-31.4 -2.43,-11.5 -4.07,-23.1 -5.08,-34.6 -11.55,-1 -23.1,-2.7 -34.64,-5.1 -10.48,-2.2 -20.96,-5.1 -31.43,-8.7 -10.48,-3.8 -20.96,-8 -31.44,-14.4 10.48,-6.5 20.96,-10.7 31.44,-14.5 10.47,-3.6 20.95,-6.5 31.43,-8.7 11.53,-2.4 23.05,-4.1 34.58,-5.1 1,-11.5 2.64,-23.1 5.05,-34.6 4.67,-21 10.82,-41.9 23.24,-62.9 12.4,21 18.56,41.9 23.22,62.9 2.42,11.5 4.06,23 5.06,34.6 11.53,1 23.05,2.6 34.58,5 20.96,4.7 41.91,10.8 62.86,23.3" /><path
         id="path74"
         style="fill:#152b27;fill-opacity:1;fill-rule:nonzero;stroke:none"
         d="m 9395.54,11773.6 c 0,-35.2 -28.48,-63.7 -63.62,-63.7 -35.14,0 -63.62,28.5 -63.62,63.7 0,35.1 28.48,63.6 63.62,63.6 35.14,0 63.62,-28.5 63.62,-63.6" /><path
         id="path76"
         style="fill:#152b27;fill-opacity:1;fill-rule:nonzero;stroke:none"
         d="m 9159.23,11278 c 0,-17.6 -14.24,-31.8 -31.81,-31.8 -17.57,0 -31.81,14.2 -31.81,31.8 0,17.6 14.24,31.8 31.81,31.8 17.57,0 31.81,-14.2 31.81,-31.8" /><path
         id="path78"
         style="fill:#152b27;fill-opacity:1;fill-rule:nonzero;stroke:none"
         d="m 10089,9650.8 c 14.1,-60.2 53.7,-101.9 100.3,-138.3 56.7,-44.1 122.1,-71.5 190.4,-96.6 -57.4,-33.1 -110.8,-66.8 -115.4,-140.3 -33,2 -66,3.9 -99,5.8 -0.9,4.3 -1.7,8.6 -2.6,12.9 0.4,4 0.9,8 1.3,12 3.4,37.8 19,71 41.2,102 -107,48.1 -178.3,125.1 -209.9,241.9 -31.5,-31.1 -61.37,-57.1 -81.43,-92 -12.31,-21.5 -15.59,-43.2 -7.43,-68 22.77,-69.3 43.56,-139.3 65.14,-208.9 -16.15,-0.9 -32.4,-0.9 -48.43,-2.8 -57.12,-6.8 -47.59,-8.4 -61.59,46.7 -11.13,43.8 -20.65,88 -30.17,132.2 -12.96,60.2 -3.23,115.6 35.8,164.7 44.06,55.4 94.62,103.8 153.31,143.6 17.5,11.8 25.8,12.5 32.8,-11.9 10,-34.8 18.2,-70.7 35.7,-103" /><path
         id="path80"
         style="fill:#152b27;fill-opacity:1;fill-rule:nonzero;stroke:none"
         d="m 9652.71,9397.6 c 38.39,134.6 76.5,269.2 115.57,403.6 4.39,15.1 -2.02,21.5 -12.24,29.1 -21.77,16.2 -35.41,36.7 -31.06,69.2 30.81,-38.5 68.53,-57.5 115.03,-56.9 24.4,0.4 12.15,-13.7 9.46,-23.2 -46.9,-165.8 -94.01,-331.6 -141.1,-497.3 -5.55,-19.6 -11.26,-39.1 -16.89,-58.6 -77.95,-7.9 -77.84,-7.9 -56.64,66.5 6.38,22.5 11.94,45.1 17.87,67.6" /><path
         id="path82"
         style="fill:#152b27;fill-opacity:1;fill-rule:nonzero;stroke:none"
         d="m 9997.96,9949.6 c 5.84,26.3 8.74,52.4 0.51,79.1 -10.05,32.6 -28.28,58.1 -61.01,69.4 -32.2,11.1 -65.37,19.4 -98.12,28.9 -17.29,8.4 -35.24,15.7 -51.72,25.4 -41.32,24.5 -70.72,57.9 -78.03,111.4 37.45,-41 69.54,-83 128,-92.5 -30,101.8 -15.36,157.3 48.8,194.2 -12.17,-31.9 -29.64,-61.7 -28.6,-98 1.5,-52.1 21.55,-91.5 68.93,-115.7 109.78,-55.9 226.88,-66.6 347.08,-54.9 49.2,4.8 97.9,15 146.9,22.7 -43.7,-45.6 -102,-54.2 -159.9,-58 -69,-4.4 -138.4,-4.4 -206.7,10.4 -19.3,4.1 -23,1.4 -18.7,-20.4 7.8,-39.7 1.7,-77.9 -37.44,-102" /><path
         id="path84"
         style="fill:#152b27;fill-opacity:1;fill-rule:nonzero;stroke:none"
         d="m 10480.6,10381.9 c -33.5,144.3 -81,282.3 -176.9,398.7 -4.8,5.8 -10.6,10.6 -15.8,15.9 -8.7,9.3 -17.3,18.7 -28.5,30.9 39.7,-4.8 66.2,-26.2 89.3,-52.3 68.8,-78.1 104.7,-171.8 123.8,-272.3 7.6,-39.6 17.2,-79.8 8.1,-120.9" /><path
         id="path86"
         style="fill:#39ab9b;fill-opacity:1;fill-rule:nonzero;stroke:none"
         d="m 9952.61,10567.2 c 8.38,16.1 23.05,24.9 38.38,33 -16.19,-60.2 -32.38,-120.4 -48.56,-180.6 -23.89,-12.7 -37.92,-35.5 -56.04,-54.1 -64.16,-36.9 -78.8,-92.4 -48.8,-194.2 -58.46,9.5 -90.55,51.5 -128,92.5 7.31,-53.5 36.71,-86.9 78.03,-111.4 16.48,-9.7 34.43,-17 51.72,-25.4 -69.04,-17.6 -136.74,18.9 -164.58,87.8 -20.52,50.7 -39.65,102.6 -71.69,147.4 -21.39,29.9 -41.92,63.4 -84.24,68.7 3.34,21.3 3.73,48.8 18.81,59.8 15.48,11.3 35.17,-11.8 53.57,-18.3 98.19,-34.9 194.72,-34.1 288.45,13.5 29.42,14.9 58.51,32.8 66.75,69.4 l -0.64,-0.6 c 9.66,0.1 5.41,7.8 6.84,12.5" /><path
         id="path88"
         style="fill:#39ab9b;fill-opacity:1;fill-rule:nonzero;stroke:none"
         d="m 10037.6,10768.6 c -0.5,9.8 -0.2,20.6 -9.6,26.3 -27.1,16.3 -33.33,44.9 -45.84,70.8 -43.2,89.4 -104.29,162.3 -197.65,203.8 -29.31,13 -47.51,38.2 -56.38,67.4 -6.88,22.7 -15.76,44.5 -22.6,67.1 149.66,28.4 285.24,-54.6 347.37,-212.6 7.4,39.4 1.6,61.8 -38.7,148.4 38.5,9.9 77.3,8.5 116.2,6.9 17.1,-0.7 12.7,-10.7 10.3,-19.4 -18.5,-66.4 -36.5,-132.9 -56.3,-198.9 -15.9,-53.2 -25.5,-108.2 -46.8,-159.8" /><path
         id="path90"
         style="fill:#39ab9b;fill-opacity:1;fill-rule:nonzero;stroke:none"
         d="m 9624.18,10583.6 c -3.58,-15.6 -18.41,-13 -30.69,-7.1 -23.74,11.6 -41.51,30.5 -54.83,53.3 -4.33,7.5 -8.93,14.9 -12,22.9 -9.22,23.9 -20.53,47.2 -21.74,73.6 26.35,-1.2 52.71,-2.3 79.06,-3.4 5.92,-0.2 9.57,-1.7 11.04,-8.5 9.07,-42 18.63,-83.8 29.16,-130.8" /><path
         id="path92"
         style="fill:#39ab9b;fill-opacity:1;fill-rule:nonzero;stroke:none"
         d="m 9654.51,10623.1 c -21.4,30.7 -27.05,58.9 -33.94,87 -2.98,12.1 1.99,15.9 11.41,17.8 10.3,2.2 20.78,3.5 33.6,5.6 -9.81,-34.4 -10.56,-69 -11.07,-110.4" /><path
         id="path94"
         style="fill:#152b27;fill-opacity:1;fill-rule:nonzero;stroke:none"
         d="m 10245.4,10382 c -45.6,-13.1 -46,-13.3 -62.6,27.1 -20.8,50.9 -33.1,103.6 -24.9,160 26.3,-63.7 52.5,-127.3 87.5,-187.1" /><path
         id="path96"
         style="fill:#c2ebf2;fill-opacity:1;fill-rule:nonzero;stroke:none"
         d="m 10162.7,9294.3 c -3.3,4.4 -3.5,8.5 1.3,12 -0.4,-4 -0.9,-8 -1.3,-12" /><path
         id="path98"
         style="fill:#152b27;fill-opacity:1;fill-rule:nonzero;stroke:none"
         d="m 9952.61,10567.2 c -1.43,-4.7 2.82,-12.4 -6.84,-12.5 -5.27,8.3 3.4,8.9 6.84,12.5" /><path
         id="path100"
         style="fill:#152b27;fill-opacity:1;fill-rule:nonzero;stroke:none"
         d="m 10991.8,11538.6 c -40.3,-135.3 -80.5,-270.6 -120.1,-406.1 -3.7,-12.5 -9.8,-17.2 -22.3,-18.2 -88.9,-7.1 -173.7,6.6 -253.7,47.4 1.5,3.2 1.9,6.2 3.4,6.9 51.8,22.5 63.7,69.1 76.7,118.1 30.6,115.6 65.1,230.2 98.7,347.6 65.2,-36.2 133.7,-61.3 205.8,-76 13,-2.6 15,-8.2 11.5,-19.7 z m -1407.82,-815.7 c 5.92,-0.2 9.57,-1.7 11.04,-8.5 9.07,-42 18.63,-83.8 29.16,-130.8 -3.58,-15.6 -18.41,-13 -30.69,-7.1 -23.74,11.6 -41.51,30.5 -54.83,53.3 -4.33,7.5 -8.93,14.9 -12,22.9 -9.22,23.9 -20.53,47.2 -21.74,73.6 26.35,-1.2 52.71,-2.3 79.06,-3.4 z m 48,5 c 10.3,2.2 20.78,3.5 33.6,5.6 -9.81,-34.4 -10.56,-69 -11.07,-110.4 -21.4,30.7 -27.05,58.9 -33.94,87 -2.98,12.1 1.99,15.9 11.41,17.8 z m 1408.02,885.7 c -69.9,4.5 -135.1,26.5 -198.2,55.3 -59.2,27 -59,27.5 -41.6,88.4 3.3,11.4 5.8,23.2 10.6,34 8.4,18.7 1.9,32.3 -11.4,45.6 -31.5,31.6 -66.4,58.7 -104.8,81.4 -63.5,37.6 -132.6,59.7 -206.6,70 1.9,5.6 2.6,8.6 3.8,11.4 17.7,40 10.6,76.7 -19.2,99.3 -28.4,21.6 -68.6,20 -95.7,-3.8 -29.1,-25.6 -35,-61.3 -12.4,-99.5 8.2,-13.8 5.1,-24.3 1.8,-36.2 -18.6,-66.4 -37.7,-132.7 -56.4,-199.1 -48.1,-170.1 -96.2,-340.2 -143.9,-510.4 -5.2,-18.4 -11.8,-24.3 -33.3,-21.1 -42.7,6.3 -86.8,6.7 -128.9,-5.4 -20.77,-5.9 -36.24,-2.3 -54.41,7.5 -169.05,90.7 -389.03,53.5 -510.31,-85.4 -151.13,-173 -154.36,-421.9 -5.23,-599.5 20.23,-24.1 22.32,-43 15.19,-71.5 -44.84,-179.4 -28.06,-349.6 83.84,-502.9 14.26,-19.5 15.32,-28.8 -3.52,-45.5 -130.75,-115.7 -179.01,-253.9 -108.12,-421.3 8.75,-20.7 -2.81,-23.8 -15.34,-30.2 -99.53,-51.2 -133.17,-158.4 -116.77,-262 23.41,3.7 46.82,7.4 70.22,11.1 -2.29,63.6 7.87,120.8 71.16,155 31.66,17.1 64.74,28.3 102.16,34.5 -21.55,50.8 -45.21,99 -56.07,152.3 -18.79,92.3 -0.39,172.8 64.44,242.8 42.6,46 87.8,89.1 136.93,131.1 -88.04,64.5 -144.7,146.7 -164.11,253.2 -14.56,79.9 -12.95,159.2 4.97,238.2 3.34,21.3 3.73,48.8 18.81,59.8 15.48,11.3 35.17,-11.8 53.57,-18.3 81.7,-29 162.24,-33.2 240.98,-6.5 4.1,1.4 8.07,2.8 11.92,4.2 0.11,0.1 0.23,0.1 0.34,0.2 22.4,8.2 40.67,17.4 55.5,26.8 6.01,3.6 11.79,7.6 17.14,12 47.25,37.1 47.68,73.8 47.68,73.8 -10.13,-10.8 -20.66,-20.2 -31.26,-28.6 -2.87,-1.5 -5.39,-3.7 -7.87,-6 -7.53,-5.6 -15.06,-10.6 -22.47,-15.1 -71.62,-40 -147.33,-57 -229.96,-37.2 -13.23,3.1 -26.73,6.6 -39.12,19.4 77.77,4.7 148.49,23.4 208.91,70.9 48.8,38.4 80.34,84.2 65.3,150.7 -17.65,78 -81.93,110.8 -155.02,76.2 -61.39,-29.2 -124.37,-49.2 -192.97,-47.4 -36.07,0.9 -70.39,8.4 -102.21,26.6 -30.83,17.7 -47.92,43.8 -48.33,78.9 -1.72,145.4 116.75,322 295.76,332.7 149.66,28.4 285.24,-54.6 347.37,-212.6 7.4,39.4 1.6,61.8 -38.7,148.4 38.5,9.9 77.3,8.5 116.2,6.9 17.1,-0.7 12.7,-10.7 10.3,-19.4 -18.5,-66.4 -36.5,-132.9 -56.3,-198.9 -15.9,-53.2 -25.5,-108.2 -46.8,-159.8 -11.8,-57.2 -29.6,-112.7 -46.61,-168.4 -16.19,-60.2 -32.38,-120.4 -48.56,-180.6 53.01,1 100.07,-13.5 137.37,-55.4 3,30.2 -4.5,47.7 -34.2,66.8 -15.2,9.7 -16.7,18.3 -12.3,34 134.2,472.7 268.1,945.4 401.7,1418.2 4.7,16.8 11.6,24 30.9,23.6 100.8,-1.7 186.9,-37.7 261.2,-105 13.3,-11.9 15.5,-23.8 10.8,-40.1 -43.5,-152.3 -87,-304.6 -129.5,-457.2 -6.3,-22.4 -14,-24.6 -34.4,-14.5 -70.8,34.9 -145.2,54.2 -225.2,45.5 -12.1,-1.4 -22.3,-1.4 -26.4,-17.5 -17.8,-69.8 -37.1,-139.2 -55.9,-208.7 49.6,-22.4 93.2,-52.8 128.1,-95.2 50.1,-60.9 74.5,-134.4 103.6,-205.7 65.4,-147.6 133,-294.3 178,-449.8 18.2,-63 14,-125.9 -9.2,-187.3 -9.7,-39.8 -31.7,-72.6 -59.1,-102 -50.9,-54.9 -117.6,-82.5 -186.8,-104.8 -12.9,-4.2 -22.1,-7.3 -19.7,-23.1 9.6,-61.7 16.8,-123.7 47.3,-180.2 46.5,-86.3 119.5,-146.3 197,-202.3 52.1,-37.6 76.7,-85.1 24.5,-150.5 -38.8,-48.7 -70.5,-103 -110.1,-161.8 38.5,10.1 69,-14.7 100.7,2.7 38,57.7 77.9,114.2 113.4,173.3 45.9,76.3 28.4,149.9 -43.6,200.4 -15.1,10.5 -30.7,20.2 -45.7,30.8 -81.7,57.1 -154.3,122 -192,218.1 -10.7,27.4 -10.1,41.3 22.9,53.9 204.2,77.5 305.4,310.6 222.3,511.2 -60.1,145.4 -115.4,292.7 -173.6,438.8 -44.7,112.2 -102.3,214.9 -212.8,276.4 -10,5.5 -10.2,11.7 -9.1,21 10.1,84.1 21.6,92.8 104.1,77.4 3.1,-0.6 6.4,-0.8 9.6,-1.5 45.2,-10.6 45.1,-10.6 32,-56.2 -3.9,-13.5 -5.4,-28 -11.2,-40.5 -9.2,-19.5 -2.7,-29.2 15.2,-37.9 121.2,-58.8 248.6,-84.2 383.2,-75.3 19.1,1.2 27.5,9 32.6,26.6 50.1,172.9 100.2,345.7 152,518.1 7.1,23.5 0,28.4 -20.1,29.7" /><path
         id="path102"
         style="fill:#c2ebf2;fill-opacity:1;fill-rule:nonzero;stroke:none"
         d="m 10660.8,9249.3 c -5.9,-3.2 -11.7,-5 -17.6,-5.8 11.3,-1.5 22.5,-3.1 33.8,-4.7 -5.6,2.8 -11.1,6.3 -16.2,10.5" /><path
         id="path104"
         style="fill:#39ab9b;fill-opacity:1;fill-rule:nonzero;stroke:none"
         d="m 9667.18,9261.2 c -53.29,-4.6 -51.05,3.1 -32.34,68.8 6.38,22.5 11.94,45.1 17.87,67.6 -60.77,-17.5 -92.87,-61.6 -108.89,-119.5 -1.46,-5.2 -3.15,-9.8 -5.24,-13.8 -0.81,-5.6 -1.61,-11.2 -2.66,-16.7 -0.02,-0.1 -0.04,-0.2 -0.06,-0.3 41.68,4.9 85.57,9.4 131.32,13.4 0,0.2 0,0.3 0,0.5" /><path
         id="path106"
         style="fill:#39ab9b;fill-opacity:1;fill-rule:nonzero;stroke:none"
         d="m 10645.7,9558.9 c -77.5,56 -150.5,116 -197,202.3 -30.5,56.5 -37.7,118.5 -47.3,180.2 -2.4,15.8 6.8,18.9 19.7,23.1 69.2,22.3 135.9,49.9 186.8,104.8 27.4,29.4 49.4,62.2 59.1,102 -20.8,3.8 -28.4,21.1 -37.3,37 -52.3,93.6 -72.9,197 -91.2,300.6 -16.2,91.7 -24.4,184.7 -45.5,275.6 -1.8,8.1 -3,17.3 5.2,23.9 -29.1,71.3 -53.5,144.8 -103.6,205.7 -34.9,42.4 -78.5,72.8 -128.1,95.2 -24.1,-43.7 -29.9,-93.5 -45.9,-139.9 -8.8,-25.3 -11.8,-52.7 -21.2,-77.7 -23.4,-62.6 17.4,-87.8 75.6,-96.1 4.2,-0.6 8.6,0.5 12.9,0.9 -8.7,9.3 -17.3,18.7 -28.5,30.9 39.7,-4.8 66.2,-26.2 89.3,-52.3 68.8,-78.1 104.7,-171.8 123.8,-272.3 7.6,-39.6 17.2,-79.8 8.1,-120.9 2.5,-44 8.7,-87.8 5.2,-132 -4.2,-52 -18.2,-99.5 -65.1,-130.3 -43.7,-45.6 -102,-54.2 -159.9,-58 -69,-4.4 -138.4,-4.4 -206.7,10.4 -19.3,4.1 -23,1.4 -18.7,-20.4 7.8,-39.7 1.7,-77.9 -37.44,-102 -27.49,-30.2 -56.14,-58.6 -89.75,-82.7 -18.54,-13.2 -19.28,-40.2 -25.64,-61.6 -50.33,-169.6 -100.23,-339.3 -149.34,-509.3 -1.78,-10.3 -4.57,-20.3 -7.24,-30.4 51.46,3.9 104.96,7.2 160.5,9.6 -16.81,1 -15.28,12 -24.93,50 -11.13,43.8 -20.65,88 -30.17,132.2 -12.96,60.2 -3.23,115.6 35.8,164.7 44.06,55.4 94.62,103.8 153.31,143.6 17.5,11.8 25.8,12.5 32.8,-11.9 10,-34.8 18.2,-70.7 35.7,-103 -2.6,37.8 3.6,73.6 28.6,103.5 61.6,73.2 145.7,68.5 204.8,-9.4 23.1,-30.6 37,-65.8 56,-98.4 39.7,-68.4 92.9,-124.3 161.1,-164.9 24,-14.3 27.1,-22.9 1.3,-41.7 -48.5,-35.2 -81.3,-83.8 -95,-142.7 -5,-21.3 -14.3,-29.3 -31.5,-30 49.5,-3.8 99.5,-8.4 150.1,-14 37.6,56.2 68.5,108.3 105.8,155.2 52.2,65.4 27.6,112.9 -24.5,150.5" /></g></g></svg>